<?xml version="1.0" encoding="utf-8"?>
<!-- Generator: Adobe Illustrator 21.0.0, SVG Export Plug-In . SVG Version: 6.00 Build 0)  -->
<svg version="1.1" xmlns="http://www.w3.org/2000/svg" xmlns:xlink="http://www.w3.org/1999/xlink" x="0px" y="0px"
	 viewBox="0 0 2560 1440" style="enable-background:new 0 0 2560 1440;" xml:space="preserve">
<style type="text/css">
	.st0{display:none;}
	.st1{fill:#FF0000;}
	.st2{fill:#4D4D4D;}
</style>
<g id="Фон" class="st0">
</g>
<g id="Фон_кнопки">
	<g>
		<circle class="st1" cx="1225" cy="720" r="720"/>
	</g>
</g>
<g id="Кнопка_крестик">
	<g>
		<path class="st2" d="M1614.5,346.5L1614.5,346.5c58.6,58.6,58.6,153.6,0,212.1l-566.7,566.7c-58.6,58.6-153.6,58.6-212.1,0l0,0
			c-58.6-58.6-58.6-153.6,0-212.1l566.7-566.7C1460.9,287.9,1555.9,287.9,1614.5,346.5z"/>
	</g>
	<g>
		<path class="st2" d="M833.7,344.5L833.7,344.5c58.6-58.6,153.6-58.6,212.1,0l566.7,566.7c58.6,58.6,58.6,153.6,0,212.1l0,0
			c-58.6,58.6-153.6,58.6-212.1,0L833.7,556.6C775.1,498.1,775.1,403.1,833.7,344.5z"/>
	</g>
</g>
</svg>
