<?xml version="1.0" encoding="utf-8"?>
<!-- Generator: Adobe Illustrator 21.0.0, SVG Export Plug-In . SVG Version: 6.00 Build 0)  -->
<svg version="1.1" xmlns="http://www.w3.org/2000/svg" xmlns:xlink="http://www.w3.org/1999/xlink" x="0px" y="0px"
	 viewBox="0 0 2560 1440" style="enable-background:new 0 0 2560 1440;" xml:space="preserve">
<style type="text/css">
	.st0{display:none;}
	.st1{fill:#FF0000;}
</style>
<g id="Фон" class="st0">
</g>
<g id="Фон_кнопки">
	<g>
		<circle class="st1" cx="1225" cy="720" r="720"/>
	</g>
</g>
<g id="Кнопка_крестик">
	<g>
		<path d="M1656.3,1151.3L1656.3,1151.3c-58.6,58.6-153.6,58.6-212.1,0L793.7,500.8c-58.6-58.6-58.6-153.6,0-212.1l0,0
			c58.6-58.6,153.6-58.6,212.1,0l650.5,650.5C1714.9,997.8,1714.9,1092.8,1656.3,1151.3z"/>
	</g>
	<g>
		<path d="M1664.3,296.7L1664.3,296.7c58.6,58.6,58.6,153.6,0,212.1l-650.5,650.5c-58.6,58.6-153.6,58.6-212.1,0l0,0
			c-58.6-58.6-58.6-153.6,0-212.1l650.5-650.5C1510.8,238.1,1605.8,238.1,1664.3,296.7z"/>
	</g>
</g>
</svg>
